<?xml version="1.0" encoding="utf-8"?>
<!-- Generator: Adobe Illustrator 16.0.3, SVG Export Plug-In . SVG Version: 6.00 Build 0)  -->
<!DOCTYPE svg PUBLIC "-//W3C//DTD SVG 1.1//EN" "http://www.w3.org/Graphics/SVG/1.1/DTD/svg11.dtd">
<svg version="1.1" id="Vrstva_1" xmlns="http://www.w3.org/2000/svg" xmlns:xlink="http://www.w3.org/1999/xlink" x="0px" y="0px"
	 width="141.732px" height="37.605px" viewBox="0 0.552 141.732 37.605" enable-background="new 0 0.552 141.732 37.605"
	 xml:space="preserve">
<path fill="#191919" d="M141.732,19.355c0,10.384-8.418,18.802-18.803,18.802H18.802C8.418,38.157,0,29.739,0,19.355l0,0
	C0,8.97,8.418,0.552,18.802,0.552h104.127C133.314,0.552,141.732,8.97,141.732,19.355L141.732,19.355z"/>
<g>
	<path fill="#FFFFFF" d="M28.113,24.845V12.978h4.903c0.116,0,0.264,0.004,0.445,0.012c0.181,0.009,0.349,0.026,0.502,0.054
		c0.687,0.104,1.254,0.333,1.702,0.685c0.448,0.352,0.78,0.795,0.997,1.331c0.217,0.535,0.326,1.13,0.326,1.784
		c0,0.967-0.245,1.798-0.734,2.493c-0.489,0.694-1.239,1.124-2.25,1.289l-0.849,0.074h-3.057v4.146H28.113z M30.099,18.845h2.835
		c0.11,0,0.233-0.005,0.371-0.016c0.137-0.012,0.264-0.033,0.379-0.066c0.33-0.082,0.589-0.228,0.779-0.437
		c0.19-0.209,0.324-0.445,0.404-0.709s0.12-0.521,0.12-0.774s-0.04-0.513-0.12-0.779s-0.214-0.504-0.404-0.713
		c-0.189-0.208-0.449-0.354-0.779-0.437c-0.115-0.033-0.242-0.054-0.379-0.062c-0.137-0.009-0.261-0.013-0.371-0.013h-2.835V18.845z
		 M34.928,24.845l-2.34-4.829l2.019-0.445l2.571,5.274H34.928z"/>
	<path fill="#FFFFFF" d="M43.037,25.092c-0.901,0-1.692-0.195-2.374-0.585s-1.213-0.932-1.595-1.623
		c-0.382-0.692-0.573-1.489-0.573-2.391c0-0.973,0.187-1.817,0.561-2.534s0.893-1.273,1.558-1.669
		c0.665-0.396,1.434-0.593,2.308-0.593c0.923,0,1.707,0.216,2.353,0.646c0.646,0.432,1.125,1.04,1.438,1.825
		c0.313,0.786,0.431,1.712,0.354,2.777h-1.969v-0.725c-0.006-0.967-0.176-1.673-0.511-2.118s-0.863-0.668-1.582-0.668
		c-0.813,0-1.417,0.252-1.813,0.754c-0.396,0.503-0.593,1.238-0.593,2.205c0,0.901,0.198,1.599,0.593,2.093
		c0.396,0.495,0.973,0.742,1.731,0.742c0.489,0,0.911-0.108,1.265-0.325c0.354-0.218,0.627-0.532,0.82-0.944l1.961,0.594
		c-0.341,0.802-0.867,1.426-1.578,1.871C44.678,24.869,43.894,25.092,43.037,25.092z M39.971,20.946v-1.5h6.124v1.5H39.971z"/>
	<path fill="#FFFFFF" d="M48.089,24.845v-0.271l4.714-6.891h-4.236v-1.738h7.327v0.28l-4.698,6.881h4.5v1.739H48.089z"/>
	<path fill="#FFFFFF" d="M61.094,25.092c-0.901,0-1.692-0.195-2.374-0.585s-1.213-0.932-1.595-1.623
		c-0.382-0.692-0.573-1.489-0.573-2.391c0-0.973,0.187-1.817,0.561-2.534s0.893-1.273,1.558-1.669
		c0.665-0.396,1.434-0.593,2.308-0.593c0.923,0,1.707,0.216,2.353,0.646c0.646,0.432,1.125,1.04,1.438,1.825
		c0.313,0.786,0.431,1.712,0.354,2.777h-1.969v-0.725c-0.006-0.967-0.176-1.673-0.511-2.118s-0.863-0.668-1.582-0.668
		c-0.813,0-1.417,0.252-1.813,0.754c-0.396,0.503-0.593,1.238-0.593,2.205c0,0.901,0.198,1.599,0.593,2.093
		c0.396,0.495,0.973,0.742,1.731,0.742c0.489,0,0.911-0.108,1.265-0.325c0.354-0.218,0.627-0.532,0.82-0.944l1.961,0.594
		c-0.341,0.802-0.867,1.426-1.578,1.871C62.735,24.869,61.95,25.092,61.094,25.092z M58.028,20.946v-1.5h6.124v1.5H58.028z"/>
	<path fill="#FFFFFF" d="M66.969,24.845v-8.9h1.755v2.167l-0.214-0.28c0.11-0.296,0.257-0.566,0.441-0.812
		c0.184-0.244,0.405-0.446,0.664-0.605c0.22-0.148,0.463-0.265,0.729-0.351c0.267-0.085,0.54-0.137,0.82-0.156
		c0.28-0.02,0.553-0.007,0.816,0.037v1.854c-0.264-0.077-0.567-0.102-0.911-0.074c-0.344,0.027-0.653,0.123-0.927,0.288
		c-0.275,0.148-0.499,0.338-0.672,0.568c-0.173,0.231-0.301,0.493-0.383,0.787c-0.083,0.294-0.124,0.611-0.124,0.952v4.524H66.969z"
		/>
	<path fill="#FFFFFF" d="M75.952,24.845l-3.23-8.9h1.985l2.242,6.453l2.233-6.453h1.994l-3.23,8.9H75.952z"/>
	<path fill="#FFFFFF" d="M84.654,25.092c-0.643,0-1.187-0.122-1.632-0.366c-0.445-0.245-0.781-0.57-1.01-0.977
		c-0.228-0.407-0.342-0.854-0.342-1.344c0-0.429,0.071-0.814,0.215-1.158c0.143-0.343,0.362-0.64,0.659-0.89
		c0.296-0.25,0.681-0.455,1.153-0.614c0.357-0.115,0.776-0.22,1.257-0.313c0.48-0.094,1.003-0.181,1.565-0.26
		c0.563-0.08,1.152-0.166,1.769-0.26l-0.709,0.403c0.005-0.615-0.132-1.068-0.412-1.359s-0.753-0.437-1.418-0.437
		c-0.4,0-0.788,0.093-1.161,0.28c-0.374,0.187-0.635,0.508-0.783,0.964l-1.813-0.568c0.22-0.753,0.639-1.357,1.257-1.813
		s1.452-0.684,2.501-0.684c0.792,0,1.488,0.129,2.09,0.387c0.602,0.259,1.048,0.682,1.339,1.27c0.159,0.313,0.256,0.633,0.288,0.96
		c0.033,0.327,0.05,0.683,0.05,1.067v5.464h-1.739v-1.929l0.289,0.313c-0.401,0.643-0.87,1.114-1.405,1.413
		C86.125,24.942,85.456,25.092,84.654,25.092z M85.05,23.51c0.45,0,0.835-0.08,1.154-0.239c0.318-0.159,0.572-0.354,0.762-0.585
		s0.317-0.448,0.384-0.651c0.104-0.252,0.163-0.542,0.177-0.869s0.021-0.592,0.021-0.795l0.61,0.181
		c-0.6,0.094-1.113,0.176-1.541,0.247c-0.429,0.072-0.797,0.14-1.104,0.202c-0.308,0.063-0.58,0.134-0.816,0.21
		c-0.23,0.083-0.426,0.179-0.585,0.289c-0.159,0.109-0.281,0.236-0.366,0.379c-0.086,0.143-0.128,0.311-0.128,0.503
		c0,0.22,0.055,0.413,0.165,0.581c0.109,0.167,0.271,0.301,0.481,0.399C84.474,23.46,84.736,23.51,85.05,23.51z M86.665,14.667
		h-1.508l1.277-3.05h1.508L86.665,14.667z"/>
	<path fill="#FFFFFF" d="M95.524,25.092c-0.917,0-1.7-0.204-2.349-0.614c-0.648-0.409-1.144-0.968-1.487-1.677
		s-0.518-1.511-0.523-2.406c0.006-0.912,0.186-1.721,0.54-2.427s0.858-1.262,1.512-1.665c0.654-0.404,1.432-0.605,2.333-0.605
		c1.011,0,1.866,0.254,2.566,0.762c0.701,0.509,1.158,1.202,1.373,2.081l-1.979,0.536c-0.153-0.479-0.409-0.851-0.767-1.117
		c-0.356-0.267-0.764-0.399-1.22-0.399c-0.517,0-0.942,0.122-1.277,0.366c-0.335,0.245-0.582,0.581-0.741,1.01
		s-0.239,0.915-0.239,1.459c0,0.846,0.189,1.53,0.568,2.052c0.38,0.522,0.942,0.783,1.689,0.783c0.527,0,0.944-0.121,1.249-0.362
		c0.305-0.242,0.534-0.591,0.688-1.047l2.027,0.453c-0.275,0.906-0.756,1.603-1.442,2.089
		C97.359,24.849,96.519,25.092,95.524,25.092z"/>
	<path fill="#FFFFFF" d="M101.062,14.593v-1.821h1.986v1.821H101.062z M101.062,24.845v-8.9h1.986v8.9H101.062z"/>
	<path fill="#FFFFFF" d="M109.567,25.092c-0.901,0-1.692-0.195-2.373-0.585c-0.682-0.39-1.213-0.932-1.595-1.623
		c-0.382-0.692-0.573-1.489-0.573-2.391c0-0.973,0.187-1.817,0.561-2.534s0.893-1.273,1.558-1.669s1.434-0.593,2.308-0.593
		c0.923,0,1.707,0.216,2.353,0.646c0.646,0.432,1.125,1.04,1.438,1.825c0.313,0.786,0.431,1.712,0.354,2.777h-1.97v-0.725
		c-0.006-0.967-0.176-1.673-0.511-2.118c-0.336-0.445-0.863-0.668-1.583-0.668c-0.813,0-1.417,0.252-1.813,0.754
		c-0.396,0.503-0.594,1.238-0.594,2.205c0,0.901,0.198,1.599,0.594,2.093c0.396,0.495,0.972,0.742,1.73,0.742
		c0.489,0,0.91-0.108,1.265-0.325c0.354-0.218,0.628-0.532,0.82-0.944l1.961,0.594c-0.34,0.802-0.866,1.426-1.578,1.871
		C111.209,24.869,110.425,25.092,109.567,25.092z M106.502,20.946v-1.5h6.123v1.5H106.502z"/>
</g>
</svg>
