<svg xmlns="http://www.w3.org/2000/svg" xmlns:xlink="http://www.w3.org/1999/xlink" version="1.1" width="141.732pt" height="38.7095pt" viewBox="0 0 141.732 38.7095">
<defs>
<clipPath id="clip_1">
<path transform="matrix(1,0,0,-1,0,38.7095)" d="M0 38.709H141.732V0H0Z"/>
</clipPath>
</defs>
<g id="layer_1" data-name="Vrstva 1">
<path transform="matrix(1,0,0,-1,138.3183,3.4897996)" d="M0 0V-32.065L-132.603-31.99V-35.22H3.414V0Z" fill="#9e9e9e"/>
<path transform="matrix(1,0,0,-1,0,-.0004005432)" d="M0 0V-35.628H138.949V-34.737 0ZM1.781-1.782H137.167V-33.847H1.781ZM138.058-34.737V-33.847-34.737H138.949Z" fill="#545555"/>
<g clip-path="url(#clip_1)">
<path transform="matrix(1,0,0,-1,15.4268,16.040999)" d="M0 0H.283C1.235 0 2.307 .178 2.307 1.399 2.307 2.62 1.235 2.798 .283 2.798H0ZM6.416-6.192H2.784L.03-1.875H0V-6.192H-2.917V5.031H1.444C3.662 5.031 5.344 3.974 5.344 1.578 5.344 .03 4.48-1.31 2.888-1.593Z" fill="#545555"/>
<path transform="matrix(1,0,0,-1,27.8999,17.3067)" d="M0 0C-.134 .729-.804 1.206-1.533 1.206-2.322 1.206-2.977 .789-3.141 0ZM2.516-1.563H-3.186C-3.186-2.665-2.604-3.26-1.488-3.26-.908-3.26-.491-3.066-.193-2.56H2.412C1.98-4.361 .269-5.18-1.473-5.18-4.004-5.18-5.895-3.751-5.895-1.116-5.895 1.429-4.153 2.962-1.667 2.962 .982 2.962 2.516 1.325 2.516-1.28Z" fill="#545555"/>
<path transform="matrix(1,0,0,-1,38.6167,19.985899)" d="M0 0V-2.248H-7.74L-4.153 3.141H-7.264V5.389H.357L-3.215 0Z" fill="#545555"/>
<path transform="matrix(1,0,0,-1,45.3003,17.3067)" d="M0 0C-.134 .729-.804 1.206-1.533 1.206-2.322 1.206-2.977 .789-3.141 0ZM2.516-1.563H-3.186C-3.186-2.665-2.605-3.26-1.489-3.26-.908-3.26-.492-3.066-.193-2.56H2.411C1.979-4.361 .268-5.18-1.474-5.18-4.004-5.18-5.895-3.751-5.895-1.116-5.895 1.429-4.153 2.962-1.667 2.962 .982 2.962 2.516 1.325 2.516-1.28Z" fill="#545555"/>
<path transform="matrix(1,0,0,-1,51.7598,15.8477)" d="M0 0H.03C.551 .938 1.444 1.354 2.5 1.354H3.022V-1.25C2.649-1.042 2.292-.998 1.875-.998 .372-.998 0-1.995 0-3.305V-6.386H-2.709V1.25H0Z" fill="#545555"/>
<path transform="matrix(1,0,0,-1,59.7974,18.5122)" d="M0 0 1.816 3.915H4.853L.863-3.721H-.863L-4.868 3.915H-1.831Z" fill="#545555"/>
<path transform="matrix(1,0,0,-1,69.1299,13.465799)" d="M0 0-1.206 .878 .893 3.438 2.545 2.248ZM-1.563-4.957C-1.563-5.925-.923-6.669 .179-6.669 1.28-6.669 1.92-5.925 1.92-4.957 1.92-4.019 1.28-3.23 .179-3.23-.923-3.23-1.563-4.019-1.563-4.957M4.54-8.768H1.831V-7.919H1.801C1.325-8.679 .387-9.021-.506-9.021-2.769-9.021-4.362-7.13-4.362-4.942-4.362-2.754-2.799-.878-.536-.878 .342-.878 1.265-1.206 1.831-1.875V-1.131H4.54Z" fill="#545555"/>
<path transform="matrix(1,0,0,-1,80.978,17.083)" d="M0 0C-.402 .297-.878 .536-1.399 .536-2.441 .536-3.26-.268-3.26-1.325-3.26-2.426-2.471-3.201-1.354-3.201-.878-3.201-.357-3.007 0-2.68V-4.972C-.596-5.27-1.25-5.404-1.905-5.404-4.168-5.404-6.059-3.722-6.059-1.415-6.059 1.042-4.183 2.739-1.787 2.739-1.161 2.739-.536 2.59 0 2.292Z" fill="#545555"/>
<path transform="matrix(1,0,0,-1,0,38.7095)" d="M85.369 16.476H82.66V24.112H85.369ZM85.532 27.044C85.532 26.211 84.848 25.526 84.014 25.526 83.18 25.526 82.496 26.211 82.496 27.044 82.496 27.878 83.18 28.563 84.014 28.563 84.848 28.563 85.532 27.878 85.532 27.044" fill="#545555"/>
<path transform="matrix(1,0,0,-1,92.4834,17.3067)" d="M0 0C-.134 .729-.804 1.206-1.533 1.206-2.322 1.206-2.977 .789-3.141 0ZM2.516-1.563H-3.186C-3.186-2.665-2.605-3.26-1.489-3.26-.908-3.26-.491-3.066-.193-2.56H2.412C1.98-4.361 .268-5.18-1.474-5.18-4.004-5.18-5.895-3.751-5.895-1.116-5.895 1.429-4.153 2.962-1.667 2.962 .982 2.962 2.516 1.325 2.516-1.28Z" fill="#545555"/>
<path transform="matrix(1,0,0,-1,106.4385,.8906975)" d="M0 0V-33.698H1.782V0" fill="#545555"/>
<path transform="matrix(1,0,0,-1,122.0073,22.731499)" d="M0 0V3.266H-3.266V5.01H0V8.276H1.744V5.01H5.01V3.266H1.744V0Z" fill="#545555"/>
<path transform="matrix(1,0,0,-1,126.7021,18.0366)" d="M0 0H-3.266V3.266H-4.379V0H-7.646V-1.113H-4.379V-4.379H-3.266V-1.113H0Z" fill="#545555"/>
</g>
</g>
</svg>
